<svg xmlns="http://www.w3.org/2000/svg" viewBox="0 0 24 24" aria-hidden="true">
  <path fill="currentColor" d="M12 2C6.48 2 2 6.58 2 12.26c0 4.5 2.87 8.32 6.84 9.67.5.1.68-.22.68-.48 0-.24-.01-.86-.01-1.7-2.78.62-3.37-1.38-3.37-1.38-.46-1.2-1.12-1.52-1.12-1.52-.91-.64.07-.63.07-.63 1.01.07 1.54 1.06 1.54 1.06.9 1.57 2.36 1.12 2.94.86.09-.67.35-1.12.63-1.38-2.22-.26-4.56-1.14-4.56-5.06 0-1.12.39-2.03 1.03-2.75-.1-.26-.45-1.29.1-2.68 0 0 .84-.28 2.75 1.05a9.2 9.2 0 0 1 2.5-.35c.85 0 1.71.12 2.5.35 1.91-1.33 2.75-1.05 2.75-1.05.55 1.39.2 2.42.1 2.68.64.72 1.03 1.63 1.03 2.75 0 3.93-2.34 4.8-4.57 5.05.36.33.68.98.68 1.98 0 1.43-.01 2.58-.01 2.93 0 .26.18.58.69.48A10.3 10.3 0 0 0 22 12.26C22 6.58 17.52 2 12 2z"/>
</svg>